<?xml version="1.0" encoding="UTF-8" standalone="no"?>
<!DOCTYPE svg PUBLIC "-//W3C//DTD SVG 1.1//EN" "http://www.w3.org/Graphics/SVG/1.1/DTD/svg11.dtd">
<svg width="100%" height="100%" viewBox="0 0 712 712" version="1.1" xmlns="http://www.w3.org/2000/svg" xmlns:xlink="http://www.w3.org/1999/xlink" xml:space="preserve" xmlns:serif="http://www.serif.com/" style="fill-rule:evenodd;clip-rule:evenodd;stroke-linejoin:round;stroke-miterlimit:2;">
    <g transform="matrix(5.55556,0,0,5.55556,0,0)">
        <g transform="matrix(0.27893,0,0,0.27893,-3.34132,4.1658)">
            <path d="M239.7,370C269.72,369.93 319.96,368.75 354.36,329.48C377.05,303.58 378.56,235.36 335.25,193.94C316.7,176.21 300.85,157.91 239.7,156.29C196.39,155.15 162.7,176.57 144.15,194.3C100.84,235.71 103.78,302.79 125.04,329.84C155.62,368.75 209.71,370.07 239.7,370Z" style="fill:rgb(58,138,211);fill-rule:nonzero;"/>
        </g>
        <g transform="matrix(0.27893,0,0,0.27893,-3.34132,4.1658)">
            <path d="M358.65,317.5C358.65,317.5 356.15,210 384.9,192.5L402.5,260L418.75,276.25C418.75,276.25 406.15,308.75 358.65,317.5Z" style="fill:rgb(58,138,211);fill-rule:nonzero;"/>
        </g>
        <g transform="matrix(0.27893,0,0,0.27893,-3.34132,4.1658)">
            <path d="M417.4,257.5C417.4,257.5 411.15,258.75 413.65,265C414.76,267.78 416.61,271.54 418.33,274.87C394.89,295.15 371.15,302.5 371.15,302.5C371.15,302.5 392.4,240 384.9,192.5C377.4,145 378.6,69.55 406.15,61.25C418.6,57.5 466.15,80 463.65,177.5C462.75,212.63 450.44,238.56 435.12,257.5L417.4,257.5Z" style="fill:rgb(254,154,204);fill-rule:nonzero;"/>
        </g>
        <g transform="matrix(0.27893,0,0,0.27893,-3.34132,4.1658)">
            <path d="M123.7,317.5C123.7,317.5 126.2,210 97.45,192.5L80,247.5L63.75,275C63.75,275 76.2,308.75 123.7,317.5Z" style="fill:rgb(58,138,211);fill-rule:nonzero;"/>
        </g>
        <g transform="matrix(0.27893,0,0,0.27893,-3.34132,4.1658)">
            <path d="M198.75,278.75C198.75,263.87 199.55,249 198.75,234.12C197.93,219.02 193.75,200 177.53,196.83C167.36,194.84 158.55,196.45 150,202.5C132.22,215.09 125.96,240.45 124.77,260.67C121.02,324.42 163.75,325 163.75,325C163.75,325 198.75,327.62 198.75,278.75Z" style="fill:rgb(130,205,236);fill-rule:nonzero;"/>
        </g>
        <g transform="matrix(0.27893,0,0,0.27893,-3.34132,4.1658)">
            <path d="M266.59,250.84C266.59,250.84 254.12,245.88 240,246.25C225.88,246.1 213.41,251.25 213.41,251.25C213.41,251.25 215.47,248.67 219.95,245.75C224.36,242.83 231.55,239.82 239.91,239.78C248.27,239.67 255.5,242.6 259.96,245.44C264.49,248.3 266.59,250.84 266.59,250.84Z" style="fill:rgb(24,83,178);fill-rule:nonzero;"/>
        </g>
        <g transform="matrix(0.27893,0,0,0.27893,-3.34132,4.1658)">
            <ellipse cx="240" cy="294.38" rx="36.25" ry="35.67" style="fill:rgb(33,33,33);"/>
        </g>
        <g transform="matrix(0.27893,0,0,0.27893,-3.34132,4.1658)">
            <ellipse cx="163.82" cy="277.5" rx="28.13" ry="37.5" style="fill:rgb(33,33,33);"/>
        </g>
        <g transform="matrix(0.27893,0,0,0.27893,-3.34132,4.1658)">
            <circle cx="168.19" cy="260" r="10" style="fill:white;"/>
        </g>
        <g transform="matrix(0.27893,0,0,0.27893,-3.34132,4.1658)">
            <path d="M64.95,257.5C64.95,257.5 71.2,258.75 68.7,265C67.59,267.78 65.74,271.54 64.02,274.87C87.46,295.15 111.2,302.5 111.2,302.5C111.2,302.5 89.95,240 97.45,192.5C104.95,145 103.75,69.55 76.2,61.25C63.75,57.5 16.2,80 18.7,177.5C19.6,212.63 31.91,238.56 47.23,257.5L64.95,257.5Z" style="fill:rgb(254,154,204);fill-rule:nonzero;"/>
        </g>
        <g transform="matrix(0.27893,0,0,0.27893,-3.34132,4.1658)">
            <path d="M332.5,331.18C332.5,331.18 333.75,333.75 326.25,338.75C321.25,342.5 280.62,356.18 240.62,354.93C186.87,354.93 163.79,341.16 160.26,339.58C156.85,338.03 154.38,335.93 152.7,334.04C149.34,330.18 148.74,327.42 148.74,327.42C148.74,327.42 151.16,329.72 154.99,332.49C156.89,333.85 160.61,335.52 163.74,336.24C166.75,336.95 214,345 240,345C266.38,345.2 318.22,338.55 322.5,336.25C330,333.75 332.5,331.18 332.5,331.18Z" style="fill:rgb(33,33,33);fill-rule:nonzero;"/>
        </g>
        <g transform="matrix(0.27893,0,0,0.27893,-3.34132,4.1658)">
            <path d="M186.25,190.14C186.08,190.61 179.01,184.24 171.25,183.75C162.94,183.22 153.75,186.39 153.75,186.39C153.75,186.39 155.07,184.64 157.85,182.48C160.56,180.35 165.11,177.7 171.15,177.93C177.31,178.19 181.81,182.23 183.6,185.13C185.55,188.1 186.25,190.14 186.25,190.14Z" style="fill:rgb(24,83,178);fill-rule:nonzero;"/>
        </g>
        <g transform="matrix(0.27893,0,0,0.27893,-3.34132,4.1658)">
            <path d="M296.25,190.84C296.36,190.89 296.28,188.5 298.17,185.02C299.89,181.62 305.37,177.38 311.9,177.94C318.29,178.41 322.82,181.88 325.33,184.61C327.89,187.42 328.75,189.59 328.75,189.59C328.75,189.59 319.74,182.84 312.5,183.75C308.17,183.43 303.48,185.48 300.66,187.29C299.35,188.24 298.17,189.08 297.47,189.79C296.7,190.45 296.25,190.84 296.25,190.84Z" style="fill:rgb(24,83,178);fill-rule:nonzero;"/>
        </g>
        <g transform="matrix(0.27893,0,0,0.27893,-3.34132,4.1658)">
            <rect x="235" y="326.25" width="10" height="22.5" style="fill:rgb(33,33,33);"/>
        </g>
        <g transform="matrix(0.27893,0,0,0.27893,-3.34132,4.1658)">
            <path d="M282.04,278.73C282.04,263.85 281.24,248.98 282.04,234.1C282.86,219 287.04,199.98 303.26,196.81C313.43,194.82 322.24,196.43 330.79,202.48C348.57,215.07 354.83,240.43 356.02,260.65C359.77,324.4 317.04,324.98 317.04,324.98C317.04,324.98 282.04,327.6 282.04,278.73Z" style="fill:rgb(130,205,236);fill-rule:nonzero;"/>
        </g>
        <g transform="matrix(0.27893,0,0,0.27893,-3.34132,4.1658)">
            <ellipse cx="316.97" cy="277.47" rx="28.13" ry="37.5" style="fill:rgb(33,33,33);"/>
        </g>
        <g transform="matrix(0.27893,0,0,0.27893,-3.34132,4.1658)">
            <circle cx="312.59" cy="259.97" r="10" style="fill:white;"/>
        </g>
    </g>
</svg>
